<?xml version="1.0" standalone="no"?>
<!DOCTYPE svg PUBLIC "-//W3C//DTD SVG 20010904//EN"
 "http://www.w3.org/TR/2001/REC-SVG-20010904/DTD/svg10.dtd">
<svg version="1.0" xmlns="http://www.w3.org/2000/svg"
 width="300.000000pt" height="347.000000pt" viewBox="0 0 300.000000 347.000000"
 preserveAspectRatio="xMidYMid meet">
<metadata>
Created by potrace 1.10, written by Peter Selinger 2001-2011
</metadata>
<g transform="translate(0.000000,347.000000) scale(0.100000,-0.100000)"
fill="#000000" stroke="none">
<path d="M1259 3312 c-129 -75 -461 -267 -737 -427 l-502 -290 3 -864 2 -865
739 -428 740 -428 555 322 c306 177 639 370 741 429 l185 107 0 864 0 863
-735 427 c-404 234 -739 426 -745 427 -5 0 -116 -62 -246 -137z m857 -413
c335 -193 630 -363 656 -378 l48 -26 -3 -764 -2 -764 -230 -133 c-126 -72
-421 -242 -655 -377 l-425 -245 -55 31 c-71 40 -827 475 -1078 620 l-192 112
2 758 3 759 585 337 c322 185 617 356 655 379 39 22 73 41 76 42 3 0 279 -158
615 -351z"/>
<path d="M833 2132 l-33 -3 0 -355 0 -354 80 0 80 0 0 90 0 91 47 50 c55 59
40 68 178 -105 l100 -125 93 -1 c50 0 92 3 92 6 0 3 -68 92 -151 196 -82 104
-149 193 -147 198 2 4 65 74 141 156 75 81 136 148 134 150 -2 2 -40 4 -86 6
l-83 2 -51 -55 c-123 -130 -257 -269 -262 -269 -3 0 -5 72 -5 159 l0 159 -47
4 c-27 1 -63 2 -80 0z"/>
<path d="M1550 1776 l0 -356 190 0 c104 0 213 5 242 11 115 25 209 94 255 187
25 51 28 67 28 162 0 95 -3 110 -27 157 -38 72 -89 120 -167 157 l-66 31 -227
3 -228 3 0 -355z m401 214 c197 -55 212 -344 22 -416 -33 -13 -76 -18 -147
-19 l-101 0 -3 223 -2 222 97 0 c54 0 114 -5 134 -10z"/>
</g>
</svg>
