<svg xmlns="http://www.w3.org/2000/svg" width="284.02" height="249.88" viewBox="0 0 284.02 249.88"><path d="M0,215.45l11.56-24.4h5.87l11.12,24.4h-6.8l-2.23-5.16H8.8l-2.19,5.16Zm10.89-10.1h6.45l-3.28-7.54Z"/><path d="M30.64,215.45v-24.4H45.09a9.4,9.4,0,0,1,6.63,2.21,9,9,0,0,1,0,12.2,9.45,9.45,0,0,1-6.63,2.18H36.76v7.8H30.64Zm6.12-12.57h5.61a8.65,8.65,0,0,0,4.32-.78,2.91,2.91,0,0,0,1.24-2.64,3.09,3.09,0,0,0-1.07-2.66c-.7-.51-2.07-.76-4.09-.76h-6v6.84Z"/><path d="M57.4,215.45v-24.4H71.85a9.4,9.4,0,0,1,6.63,2.21,9,9,0,0,1,0,12.2,9.45,9.45,0,0,1-6.63,2.18H63.52v7.8H57.4Zm6.12-12.57h5.61a8.65,8.65,0,0,0,4.32-.78,2.91,2.91,0,0,0,1.24-2.64,3.09,3.09,0,0,0-1.07-2.66c-.7-.51-2.07-.76-4.09-.76h-6v6.84Z"/><path d="M79.1,215.45l11.56-24.4h5.87l11.12,24.4h-6.8l-2.23-5.16H87.88l-2.19,5.16ZM90,205.35h6.45l-3.28-7.54Z"/><path d="M109.74,215.45v-24.4h6.12v19.27h12.55v5.13Zm19.89,0,11.56-24.4h5.87l11.12,24.4h-6.8l-2.23-5.16H138.41l-2.19,5.16Zm10.89-10.1H147l-3.28-7.54Z"/><path d="M186.36,206a10,10,0,0,1-4.32,7.34,16.23,16.23,0,0,1-9.73,2.76q-6.67,0-10.66-3.48a13,13,0,0,1,0-18.7q4-3.49,10.66-3.5a16.53,16.53,0,0,1,9.65,2.64,9.32,9.32,0,0,1,4.31,6.9h-6.66a5.48,5.48,0,0,0-2.44-3.39,9.19,9.19,0,0,0-4.85-1.13,7.86,7.86,0,0,0-5.79,2.1,8.84,8.84,0,0,0,0,11.46,7.85,7.85,0,0,0,5.79,2.08,8.81,8.81,0,0,0,5.11-1.34,5,5,0,0,0,2.24-3.73h6.69Z"/><path d="M190.28,215.45v-24.4h6.12v9.16h11.71v-9.16h6.09v24.4h-6.09V205.32H196.4v10.13Zm29.29,0v-24.4h6.12v24.4Z"/><path d="M227.81,215.45l11.56-24.4h5.87l11.12,24.4h-6.8l-2.23-5.16H236.59l-2.19,5.16Zm10.89-10.1h6.45l-3.28-7.54Z"/><path d="M258.45,215.45v-24.4H266l12.19,17.21V191.05H284v24.4H276.6l-12.31-17.37v17.37ZM39.3,249.23v-24.4h7.9l7.87,17.47,8.08-17.47H71v24.4H65.12V233l-7.57,16.28h-5.1l-7.28-16.56v16.56ZM88,229.77v19.47H81.92V229.77H73.57v-4.93H96.34v4.93Zm10.92,19.46v-24.4h7.51L118.61,242V224.83h5.87v24.4h-7.42l-12.31-17.37v17.37Z"/><path d="M169.67,239.78a10,10,0,0,1-4.32,7.34,16.23,16.23,0,0,1-9.73,2.76q-6.68,0-10.66-3.48a13,13,0,0,1,0-18.7q4-3.49,10.66-3.5a16.53,16.53,0,0,1,9.65,2.64,9.32,9.32,0,0,1,4.31,6.9h-6.66a5.48,5.48,0,0,0-2.44-3.39,9.19,9.19,0,0,0-4.85-1.13,7.86,7.86,0,0,0-5.79,2.1,8.84,8.84,0,0,0,0,11.46,7.85,7.85,0,0,0,5.79,2.08,8.81,8.81,0,0,0,5.11-1.34,5,5,0,0,0,2.24-3.73h6.69Z"/><path d="M173.59,249.23v-24.4h6.12V244.1h12.55v5.13Zm27.5-24.39V238a11.18,11.18,0,0,0,.37,3.09,5.24,5.24,0,0,0,1.15,2.14,4.68,4.68,0,0,0,2,1.24,9.13,9.13,0,0,0,2.89.4,8.78,8.78,0,0,0,3.11-.5,5,5,0,0,0,2.12-1.49,4.51,4.51,0,0,0,.91-1.77,12.62,12.62,0,0,0,.28-3.1V224.84H220V238.6q0,5.55-3.17,8.41t-9.32,2.87q-6.14,0-9.3-2.87c-2.11-1.91-3.17-4.72-3.17-8.41V224.84Zm24.11,24.39v-24.4H241q8.22,0,8.22,6.09a5.92,5.92,0,0,1-.83,3.15,6.06,6.06,0,0,1-2.48,2.19,6,6,0,0,1,3.19,2.2,7.28,7.28,0,0,1-1,8.91,8.52,8.52,0,0,1-5.82,1.85h-17Zm6.12-19.66v5h7.23a7,7,0,0,0,3.35-.56,2.08,2.08,0,0,0,.91-1.93,2.51,2.51,0,0,0-.24-1.15,2,2,0,0,0-.75-.79,3.65,3.65,0,0,0-1.32-.45,12,12,0,0,0-1.95-.14h-7.23Zm0,14.8h8.13a6.71,6.71,0,0,0,3.37-.59,2.33,2.33,0,0,0,.89-2.08,2.38,2.38,0,0,0-1-2.14,6.11,6.11,0,0,0-3.27-.66h-8.13v5.47ZM153.16,36.65A11.14,11.14,0,1,0,142,47.79,11.16,11.16,0,0,0,153.16,36.65Zm-15,0A3.86,3.86,0,1,1,142,40.51,3.86,3.86,0,0,1,138.16,36.65ZM212,124.07a3.64,3.64,0,0,0-6.25-.24,76.53,76.53,0,0,1-10.19,12.62,75.66,75.66,0,0,1-107-107,75.66,75.66,0,0,1,107,0A76.53,76.53,0,0,1,205.7,42.07a3.62,3.62,0,0,0,3.05,1.66,3.58,3.58,0,0,0,3.19-1.9,3.62,3.62,0,0,0-.14-3.74,84,84,0,0,0-12-14.67A82.93,82.93,0,0,0,59.08,82.94a82.94,82.94,0,0,0,141.59,58.65,83.72,83.72,0,0,0,11.16-13.81,3.61,3.61,0,0,0,.12-3.71ZM171.69,80.33a3.66,3.66,0,0,0,3.15,1.82A3.64,3.64,0,0,0,178,76.69l-15.61-27a3.51,3.51,0,0,0-6.08,0L142,74.39,127.74,49.65a3.51,3.51,0,0,0-6.08,0l-15.61,27a3.64,3.64,0,0,0,3.15,5.46,3.65,3.65,0,0,0,3.15-1.82L124.7,58.94l13.12,22.73L110.51,129a3.64,3.64,0,0,0,3.15,5.46,3.65,3.65,0,0,0,3.15-1.82l12.94-22.41h24.54l12.94,22.41a3.66,3.66,0,0,0,3.15,1.82,3.64,3.64,0,0,0,3.15-5.46l-27.31-47.3,13.12-22.73,12.35,21.39Zm-21.61,22.59H134L142,89Z"/></svg>