<svg id="Layer_1" data-name="Layer 1" xmlns="http://www.w3.org/2000/svg" viewBox="0 0 600.35 609.71"><defs><style>.cls-1,.cls-8,.cls-9{fill:#fff;}.cls-2{fill:#00bc50;}.cls-3{fill:#009ddb;}.cls-4{fill:#008bd1;}.cls-5{fill:#02b252;}.cls-6{fill:#00a651;}.cls-7{fill:#007dc6;}.cls-8{font-size:90px;}.cls-8,.cls-9{font-family:MalagaOTCE-Med, Malaga OTCE;}.cls-9{font-size:63px;}</style></defs><title>logo-color</title><polygon class="cls-1" points="102.5 375.68 89.68 333.68 157.73 241.58 180.38 231.68 287.94 204.32 415.01 211.68 507.68 346.68 493.88 378.68 102.5 375.68"/><path class="cls-2" d="M614.2,478.73c-15.81-7.48-38.4-15.59-58-21.36-2.39,6.18-4,13.16-6.88,19.05A239.54,239.54,0,0,1,614.2,478.73Z" transform="translate(-59.73 -79.58)"/><path class="cls-2" d="M93.15,478.73s37.93-7.56,77.43-.52c-3.77-7.4-6.5-15.56-9.41-23.43C139.12,461,111.86,469.87,93.15,478.73Z" transform="translate(-59.73 -79.58)"/><path class="cls-3" d="M359.53,214.9c87.73,0,159.63,67.64,166.5,153.61l40.77,58.18A213,213,0,0,0,571.53,382c0-117.09-94.92-212-212-212s-212,94.92-212,212a213.31,213.31,0,0,0,2.41,32.07l45.84-65.42A167.13,167.13,0,0,1,359.53,214.9Z" transform="translate(-59.73 -79.58)"/><path class="cls-2" d="M160.42,455l.12.31c18.13-5.09,33.17-8.7,38.17-9.87Q179.38,449.7,160.42,455Z" transform="translate(-59.73 -79.58)"/><path class="cls-2" d="M507,460.56a167.09,167.09,0,0,1-302.56-16.39c-1.32.28-2.63.58-3.94.87l-.35,41.62a141.74,141.74,0,0,0-29.56-8.45,212,212,0,0,0,378.76-1.79c-13.9,1.49-28.51,4.56-42.14,10.24Z" transform="translate(-59.73 -79.58)"/><path class="cls-2" d="M513.64,446.62c8.88,2.16,25.48,6.34,43.71,11.71.07-.19.15-.37.22-.56q-21.62-6.39-43.8-11.44C513.73,446.43,513.68,446.53,513.64,446.62Z" transform="translate(-59.73 -79.58)"/><path class="cls-2" d="M513.64,446.62c-2,4.77-4.23,9.41-6.65,13.94l.21,26.1c13.63-5.68,28.24-8.75,42.14-10.24,2.93-5.89,5.62-11.91,8-18.09C539.12,453,522.52,448.78,513.64,446.62Z" transform="translate(-59.73 -79.58)"/><path class="cls-2" d="M200.49,445l-1.78.39c-5,1.17-20,4.78-38.17,9.87a211.81,211.81,0,0,0,10,22.91,141.74,141.74,0,0,1,29.56,8.45Z" transform="translate(-59.73 -79.58)"/><path class="cls-4" d="M246.54,326.2l1.88,2.69A123.11,123.11,0,0,1,355.15,259l.13-.19.12.18c1.38-.05,2.74-.1,4.13-.1a123.05,123.05,0,0,1,106.64,61.61h0a16,16,0,0,1,26.22,0l33.64,48c-6.87-86-78.77-153.61-166.5-153.61A167.13,167.13,0,0,0,195.77,348.65l15.72-22.45a21.4,21.4,0,0,1,35,0Z" transform="translate(-59.73 -79.58)"/><path class="cls-5" d="M469.31,437.7A123.11,123.11,0,0,1,249,436.16q-22.5,3.31-44.52,8A167.09,167.09,0,0,0,507,460.56L506.86,445s2.49.56,6.78,1.6c0-.09.09-.19.13-.29Q491.78,441.34,469.31,437.7Z" transform="translate(-59.73 -79.58)"/><path class="cls-5" d="M507,460.56c2.42-4.53,4.65-9.17,6.65-13.94-4.29-1-6.78-1.6-6.78-1.6Z" transform="translate(-59.73 -79.58)"/><path class="cls-6" d="M249,436.16a123.11,123.11,0,0,0,220.36,1.54A721.52,721.52,0,0,0,249,436.16Z" transform="translate(-59.73 -79.58)"/><path class="cls-7" d="M442.36,354.47l23.81-34a123.05,123.05,0,0,0-106.64-61.61c-1.39,0-2.75.05-4.13.1L464.87,413.42Z" transform="translate(-59.73 -79.58)"/><path class="cls-7" d="M288.91,353.54,355.15,259a123.11,123.11,0,0,0-106.73,69.9l68.27,97.42Z" transform="translate(-59.73 -79.58)"/><path class="cls-7" d="M328.33,297.27h0a33.1,33.1,0,0,1,54-.27l.2.27-8.83-37.15-22.28-1.24-21,17" transform="translate(-59.73 -79.58)"/><text class="cls-8" transform="matrix(-0.08, -1, 1, -0.08, 79.95, 363.79)">W</text><text class="cls-8" transform="translate(74.42 275.62) rotate(-75.21)">H</text><text class="cls-8" transform="translate(92.79 212.55) rotate(-62.91)">I</text><text class="cls-8" transform="matrix(0.61, -0.79, 0.79, 0.61, 105.81, 184.58)">T</text><text class="cls-8" transform="matrix(0.77, -0.63, 0.63, 0.77, 137.15, 143.47)">E</text><text class="cls-8" transform="translate(178.68 111) rotate(-29.78)"> </text><text class="cls-8" transform="matrix(0.96, -0.29, 0.29, 0.96, 195.57, 97.2)">M</text><text class="cls-8" transform="matrix(1, 0.02, -0.02, 1, 271.59, 75.18)">O</text><text class="cls-8" transform="matrix(0.96, 0.29, -0.29, 0.96, 333.05, 75.66)">U</text><text class="cls-8" transform="matrix(0.84, 0.54, -0.54, 0.84, 393.03, 93.05)">N</text><text class="cls-8" transform="translate(446.33 127.65) rotate(47.11)">T</text><text class="cls-8" transform="translate(478.7 161.15) rotate(59.19)">A</text><text class="cls-8" transform="translate(505.75 208.36) rotate(70.07)">I</text><text class="cls-8" transform="translate(518.04 236.41) rotate(82.15)">N</text><text class="cls-8" transform="matrix(-0.1, 0.99, -0.99, -0.1, 525.97, 299.58)">S</text><text class="cls-9" transform="translate(53.38 422.83) rotate(57.79)">N</text><text class="cls-9" transform="matrix(0.67, 0.74, -0.74, 0.67, 82.72, 467.51)">E</text><text class="cls-9" transform="matrix(0.82, 0.58, -0.58, 0.82, 113.91, 502.41)">W</text><text class="cls-9" transform="translate(173.36 541.4) rotate(25.64)"> </text><text class="cls-9" transform="matrix(0.95, 0.31, -0.31, 0.95, 192.72, 551.46)">H</text><text class="cls-9" transform="translate(245.37 567.37) rotate(7.35)">A</text><text class="cls-9" transform="matrix(1, -0.07, 0.07, 1, 292.6, 573.51)">M</text><text class="cls-9" transform="translate(358.03 566.82) rotate(-15.7)">P</text><text class="cls-9" transform="matrix(0.91, -0.41, 0.41, 0.91, 399.57, 554.54)">S</text><text class="cls-9" transform="matrix(0.83, -0.56, 0.56, 0.83, 436.77, 537.71)">H</text><text class="cls-9" transform="translate(480.23 506.55) rotate(-42.66)">I</text><text class="cls-9" transform="translate(500.9 487.77) rotate(-50.1)">R</text><text class="cls-9" transform="matrix(0.51, -0.86, 0.86, 0.51, 529.87, 452.22)">E</text></svg>